#!OML:ASF F:\VICON\USERDATA\INSTALL\rory3\rory3.ASF
:FULLY-SPECIFIED
:DEGREES
873
root -2.96477 18.5208 -0.535994 0.224261 11.5497 -0.204685
lowerback 13.5153 1.39518 -0.410638
upperback 2.67218 1.84928 0.927689
thorax -4.80128 0.926145 0.882545
lowerneck -24.9444 -4.4689 -12.1015
upperneck 20.971 -3.57763 7.21589
head 11.2956 -1.68174 4.06147
rclavicle -2.03754e-015 -1.03368e-014
rhumerus -45.0027 4.6631 -85.4551
rradius 86.6113
rwrist -2.76747
rhand -25.8057 18.4326
rfingers 7.12502
rthumb 0.73336 -11.5459
lclavicle -2.03754e-015 -1.03368e-014
lhumerus -42.5425 -16.0649 77.8824
lradius 120.328
lwrist 24.1994
lhand -7.68821 10.1463
lfingers 7.12502
lthumb 18.2088 39.314
rfemur -8.00625 6.59569 24.2732
rtibia 31.4579
rfoot -4.50519 -4.70148
rtoes 0.292719
lfemur -50.5324 9.81235 -15.9343
ltibia 92.2632
lfoot 10.1687 -15.0824
ltoes -18.6553
874
root -3.00022 18.4131 -0.538487 0.217892 11.9652 -0.128415
lowerback 13.6351 1.48223 -0.341426
upperback 2.79687 1.96673 0.793205
thorax -4.73095 0.98227 0.68088
lowerneck -24.8509 -4.42706 -12.2783
upperneck 20.6753 -3.39823 7.01035
head 11.1478 -1.63727 4.03551
rclavicle 2.10215e-014 -1.21259e-014
rhumerus -44.5007 5.02311 -85.3798
rradius 86.1698
rwrist -3.08768
rhand -26.0162 18.2754
rfingers 7.12502
rthumb 0.530064 -11.7036
lclavicle 2.10215e-014 -1.21259e-014
lhumerus -41.5811 -15.3738 77.2574
lradius 122.323
lwrist 24.4927
lhand -7.72024 10.0766
lfingers 7.12502
lthumb 18.178 39.2472
rfemur -7.39101 6.96373 24.5466
rtibia 30.7616
rfoot -6.53656 -4.52957
rtoes 2.96312
lfemur -52.8713 10.0956 -15.9469
ltibia 95.031
lfoot 10.2028 -16.5444
ltoes -20.2927
875
root -3.03647 18.3122 -0.543448 0.0516371 12.2881 -0.238885
lowerback 13.9315 1.5725 -0.0973334
upperback 2.95266 2.11713 0.722563
thorax -4.71995 1.05289 0.437383
lowerneck -24.9426 -4.30333 -12.277
upperneck 20.5406 -3.09571 6.58867
head 11.074 -1.54982 3.92366
rclavicle -3.27001e-014 1.47101e-014
rhumerus -43.981 5.31926 -85.2846
rradius 85.6134
rwrist -2.95142
rhand -26.427 18.2489
rfingers 7.12502
rthumb 0.133314 -11.7308
lclavicle -3.27001e-014 1.47101e-014
lhumerus -40.595 -14.622 76.6731
lradius 124.206
lwrist 24.8479
lhand -7.80354 9.82589
lfingers 7.12502
lthumb 18.0979 39.0039
rfemur -6.89728 7.05842 25.0466
rtibia 30.3098
rfoot -8.6224 -4.66956
rtoes 3.04395
lfemur -54.9915 10.4498 -15.707
ltibia 97.5507
lfoot 10.4199 -18.2437
ltoes -20.6806
876
root -3.06864 18.2214 -0.546153 -0.0862073 12.4654 -0.330312
lowerback 14.1453 1.68792 0.18837
upperback 3.13736 2.30466 0.604397
thorax -4.62781 1.14183 0.116228
lowerneck -25.2946 -4.14478 -12.1742
upperneck 20.6222 -2.74794 6.14538
head 11.1232 -1.43789 3.80024
rclavicle -4.07509e-015 -7.95139e-016
rhumerus -43.3061 5.51785 -85.2121
rradius 85.005
rwrist -2.9068
rhand -26.5075 18.0396
rfingers 7.12502
rthumb 0.0555957 -11.9402
lclavicle -4.07509e-015 -7.95139e-016
lhumerus -39.6683 -13.8733 76.1005
lradius 126.102
lwrist 25.2342
lhand -7.8718 10.0393
lfingers 7.12502
lthumb 18.0322 39.2234
rfemur -6.56693 6.75563 25.4806
rtibia 30.0679
rfoot -10.4148 -4.74375
rtoes 2.88157
lfemur -56.9496 10.8594 -15.4688
ltibia 99.7884
lfoot 10.9926 -19.9492
ltoes -20.3664
